<svg width="13" height="13" viewBox="0 0 13 13" fill="none" xmlns="http://www.w3.org/2000/svg">
<g clip-path="url(#clip0_66_1157)">
<path d="M11.9168 6.00166V6.5C11.9162 7.66806 11.5379 8.80461 10.8386 9.74015C10.1392 10.6757 9.15611 11.3601 8.03598 11.6913C6.91585 12.0225 5.71868 11.9827 4.623 11.5779C3.52732 11.1731 2.59185 10.425 1.9561 9.44508C1.32035 8.46518 1.01838 7.30603 1.09524 6.1405C1.17209 4.97497 1.62365 3.86551 2.38256 2.97758C3.14148 2.08965 4.16709 1.47083 5.30643 1.21341C6.44578 0.955991 7.63781 1.07376 8.70475 1.54916M11.9168 2.16666L6.50017 7.58875L4.87517 5.96375" stroke="#323232" stroke-linecap="round" stroke-linejoin="round"/>
</g>
<defs>
<clipPath id="clip0_66_1157">
<rect width="13" height="13" fill="white"/>
</clipPath>
</defs>
</svg>
