<svg width="26" height="26" viewBox="0 0 26 26" fill="none" xmlns="http://www.w3.org/2000/svg">
<circle cx="13" cy="13" r="12.5" stroke="#D9D9D9"/>
<g clip-path="url(#clip0_40_898)">
<path d="M10.7406 8.75894C11.3048 8.45195 11.9959 8.16498 12.6352 8.06821C18.1569 7.23399 21.2532 14.1914 17.0452 17.7051C13.1159 20.9836 7.24366 17.5866 8.07993 12.5213C8.16506 12.0107 8.38205 10.9329 9.13319 11.3233C9.62727 11.5803 9.19662 12.2827 9.12818 12.6965C8.51058 16.3637 12.3264 19.1717 15.623 17.3881C16.6162 16.8509 17.5142 15.7797 17.788 14.6719C18.7828 10.6593 14.5848 7.66778 11.0878 9.74832C11.188 9.95354 11.5001 9.89515 11.6503 10.057C11.9892 10.4207 11.6837 11.0397 11.1312 10.9563C10.9276 10.9246 9.93941 10.5809 9.74746 10.4791C9.43198 10.3123 9.44199 10.1137 9.46703 9.78503C9.4904 9.49639 9.63061 8.74059 9.70573 8.45529C9.91271 7.67279 10.9726 8.00314 10.739 8.76061L10.7406 8.75894Z" fill="#A4A4A4"/>
<path d="M14.503 11.5054C17.0234 11.1467 17.1653 15.9685 14.7767 16.0235C12.545 16.0752 12.3397 11.8141 14.503 11.5054ZM15.0805 12.6716C14.6165 12.2812 14.1257 12.8819 14.0556 13.324C13.9855 13.7661 14.0907 14.9407 14.73 14.9607C15.5095 14.9858 15.6747 13.1738 15.0788 12.67L15.0805 12.6716Z" fill="#A4A4A4"/>
<path d="M11.4955 12.9436C11.1099 13.1521 10.7226 13.5342 10.3588 13.062C10.1468 12.7867 10.2202 12.5198 10.4773 12.3029C10.5908 12.2078 11.6223 11.5921 11.7542 11.5454C12.1031 11.4203 12.3468 11.5071 12.5154 11.8357L12.5287 15.573C12.3935 16.2471 11.4955 15.9751 11.4955 15.6448V12.9436Z" fill="#A4A4A4"/>
</g>
<defs>
<clipPath id="clip0_40_898">
<rect width="11" height="11" fill="white" transform="translate(8 8)"/>
</clipPath>
</defs>
</svg>
