<svg width="26" height="26" viewBox="0 0 26 26" fill="none" xmlns="http://www.w3.org/2000/svg">
<circle cx="13" cy="13" r="12.5" stroke="#D9D9D9"/>
<g clip-path="url(#clip0_40_897)">
<path d="M16.2589 8.75894C15.6947 8.45195 15.0036 8.16498 14.3643 8.06821C8.84265 7.23399 5.74629 14.1914 9.95433 17.7051C13.8836 20.9836 19.7558 17.5866 18.9196 12.5213C18.8345 12.0107 18.6175 10.9329 17.8663 11.3233C17.3722 11.5803 17.8029 12.2827 17.8713 12.6965C18.4889 16.3637 14.6731 19.1717 11.3765 17.3881C10.3833 16.8509 9.48529 15.7797 9.21154 14.6719C8.2167 10.6593 12.4147 7.66778 15.9117 9.74832C15.8115 9.95354 15.4994 9.89515 15.3492 10.057C15.0103 10.4207 15.3158 11.0397 15.8683 10.9563C16.0719 10.9246 17.0601 10.5809 17.2521 10.4791C17.5675 10.3123 17.5575 10.1137 17.5325 9.78503C17.5091 9.49639 17.3689 8.74059 17.2938 8.45529C17.0868 7.67279 16.0269 8.00314 16.2606 8.76061L16.2589 8.75894Z" fill="#A4A4A4"/>
<path d="M14.503 11.5054C17.0234 11.1467 17.1653 15.9685 14.7767 16.0235C12.545 16.0752 12.3397 11.8141 14.503 11.5054ZM15.0805 12.6716C14.6165 12.2812 14.1257 12.8819 14.0556 13.324C13.9855 13.7661 14.0907 14.9407 14.73 14.9607C15.5095 14.9858 15.6747 13.1738 15.0788 12.67L15.0805 12.6716Z" fill="#A4A4A4"/>
<path d="M11.4955 12.9436C11.1099 13.1521 10.7226 13.5342 10.3588 13.062C10.1468 12.7867 10.2202 12.5198 10.4773 12.3029C10.5908 12.2078 11.6223 11.5921 11.7542 11.5454C12.1031 11.4203 12.3468 11.5071 12.5154 11.8357L12.5287 15.573C12.3935 16.2471 11.4955 15.9751 11.4955 15.6448V12.9436Z" fill="#A4A4A4"/>
</g>
<defs>
<clipPath id="clip0_40_897">
<rect width="11" height="11" fill="white" transform="translate(8 8)"/>
</clipPath>
</defs>
</svg>
