<svg width="14" height="14" viewBox="0 0 14 14" fill="none" xmlns="http://www.w3.org/2000/svg">
<g clip-path="url(#clip0_41_196)">
<path d="M7.00016 8.74998C7.96666 8.74998 8.75016 7.96648 8.75016 6.99998C8.75016 6.03348 7.96666 5.24998 7.00016 5.24998C6.03366 5.24998 5.25016 6.03348 5.25016 6.99998C5.25016 7.96648 6.03366 8.74998 7.00016 8.74998Z" stroke="#323232" stroke-width="1.2" stroke-linecap="round" stroke-linejoin="round"/>
<path d="M11.3168 8.74998C11.2392 8.92592 11.216 9.12109 11.2503 9.31032C11.2846 9.49955 11.3748 9.67417 11.5093 9.81165L11.5443 9.84665C11.6528 9.955 11.7389 10.0837 11.7976 10.2253C11.8563 10.3669 11.8865 10.5187 11.8865 10.6721C11.8865 10.8254 11.8563 10.9772 11.7976 11.1188C11.7389 11.2605 11.6528 11.3891 11.5443 11.4975C11.436 11.606 11.3073 11.692 11.1657 11.7507C11.024 11.8094 10.8722 11.8396 10.7189 11.8396C10.5656 11.8396 10.4138 11.8094 10.2721 11.7507C10.1305 11.692 10.0018 11.606 9.8935 11.4975L9.8585 11.4625C9.72102 11.328 9.5464 11.2378 9.35717 11.2035C9.16794 11.1692 8.97277 11.1923 8.79683 11.27C8.6243 11.3439 8.47715 11.4667 8.37351 11.6232C8.26986 11.7797 8.21424 11.9631 8.2135 12.1508V12.25C8.2135 12.5594 8.09058 12.8561 7.87179 13.0749C7.65299 13.2937 7.35625 13.4166 7.04683 13.4166C6.73741 13.4166 6.44066 13.2937 6.22187 13.0749C6.00308 12.8561 5.88016 12.5594 5.88016 12.25V12.1975C5.87565 12.0044 5.81315 11.8171 5.70079 11.6601C5.58844 11.503 5.43142 11.3833 5.25016 11.3166C5.07422 11.239 4.87905 11.2158 4.68982 11.2501C4.50059 11.2845 4.32598 11.3747 4.1885 11.5091L4.1535 11.5441C4.04514 11.6526 3.91647 11.7387 3.77484 11.7974C3.63321 11.8561 3.4814 11.8863 3.32808 11.8863C3.17476 11.8863 3.02295 11.8561 2.88132 11.7974C2.73968 11.7387 2.61101 11.6526 2.50266 11.5441C2.39419 11.4358 2.30814 11.3071 2.24943 11.1655C2.19071 11.0239 2.16049 10.872 2.16049 10.7187C2.16049 10.5654 2.19071 10.4136 2.24943 10.272C2.30814 10.1303 2.39419 10.0017 2.50266 9.89331L2.53766 9.85831C2.67214 9.72083 2.76235 9.54622 2.79667 9.35699C2.83098 9.16776 2.80781 8.97259 2.73016 8.79665C2.65622 8.62411 2.53344 8.47697 2.37693 8.37333C2.22043 8.26968 2.03704 8.21406 1.84933 8.21331H1.75016C1.44074 8.21331 1.144 8.0904 0.925205 7.8716C0.706412 7.65281 0.583496 7.35607 0.583496 7.04665C0.583496 6.73723 0.706412 6.44048 0.925205 6.22169C1.144 6.0029 1.44074 5.87998 1.75016 5.87998H1.80266C1.99574 5.87546 2.183 5.81297 2.34009 5.70061C2.49718 5.58826 2.61683 5.43124 2.6835 5.24998C2.76115 5.07404 2.78431 4.87887 2.75 4.68964C2.71569 4.50041 2.62548 4.32579 2.491 4.18831L2.456 4.15331C2.34752 4.04496 2.26147 3.91629 2.20276 3.77466C2.14405 3.63303 2.11383 3.48121 2.11383 3.3279C2.11383 3.17458 2.14405 3.02276 2.20276 2.88113C2.26147 2.7395 2.34752 2.61083 2.456 2.50248C2.56435 2.39401 2.69302 2.30795 2.83465 2.24924C2.97628 2.19053 3.12809 2.16031 3.28141 2.16031C3.43473 2.16031 3.58655 2.19053 3.72818 2.24924C3.86981 2.30795 3.99848 2.39401 4.10683 2.50248L4.14183 2.53748C4.27931 2.67196 4.45392 2.76217 4.64315 2.79648C4.83238 2.83079 5.02755 2.80763 5.2035 2.72998H5.25016C5.42269 2.65603 5.56984 2.53325 5.67348 2.37675C5.77713 2.22025 5.83275 2.03686 5.8335 1.84915V1.74998C5.8335 1.44056 5.95641 1.14381 6.1752 0.925022C6.394 0.706229 6.69074 0.583313 7.00016 0.583313C7.30958 0.583313 7.60633 0.706229 7.82512 0.925022C8.04391 1.14381 8.16683 1.44056 8.16683 1.74998V1.80248C8.16758 1.99019 8.2232 2.17358 8.32684 2.33008C8.43049 2.48659 8.57763 2.60937 8.75016 2.68331C8.92611 2.76096 9.12128 2.78413 9.31051 2.74982C9.49974 2.7155 9.67435 2.62529 9.81183 2.49081L9.84683 2.45581C9.95518 2.34734 10.0839 2.26129 10.2255 2.20258C10.3671 2.14386 10.5189 2.11365 10.6722 2.11365C10.8256 2.11365 10.9774 2.14386 11.119 2.20258C11.2606 2.26129 11.3893 2.34734 11.4977 2.45581C11.6061 2.56416 11.6922 2.69283 11.7509 2.83447C11.8096 2.9761 11.8398 3.12791 11.8398 3.28123C11.8398 3.43455 11.8096 3.58636 11.7509 3.72799C11.6922 3.86962 11.6061 3.99829 11.4977 4.10665L11.4627 4.14165C11.3282 4.27913 11.238 4.45374 11.2037 4.64297C11.1693 4.8322 11.1925 5.02737 11.2702 5.20331V5.24998C11.3441 5.42251 11.4669 5.56966 11.6234 5.6733C11.7799 5.77694 11.9633 5.83256 12.151 5.83331H12.2502C12.5596 5.83331 12.8563 5.95623 13.0751 6.17502C13.2939 6.39381 13.4168 6.69056 13.4168 6.99998C13.4168 7.3094 13.2939 7.60614 13.0751 7.82494C12.8563 8.04373 12.5596 8.16665 12.2502 8.16665H12.1977C12.01 8.16739 11.8266 8.22301 11.6701 8.32666C11.5136 8.4303 11.3908 8.57745 11.3168 8.74998Z" stroke="#323232" stroke-width="1.2" stroke-linecap="round" stroke-linejoin="round"/>
</g>
<defs>
<clipPath id="clip0_41_196">
<rect width="14" height="14" fill="white"/>
</clipPath>
</defs>
</svg>
