<svg width="13" height="13" viewBox="0 0 13 13" fill="none" xmlns="http://www.w3.org/2000/svg">
<path d="M4.3335 9.74998L6.50016 8.0979L8.66683 9.74998L7.85433 7.06873L10.021 5.52498H7.36683L6.50016 2.70831L5.6335 5.52498H2.97933L5.146 7.06873L4.3335 9.74998ZM6.50016 11.9166C5.75086 11.9166 5.04669 11.7745 4.38766 11.4901C3.72863 11.2057 3.15537 10.8198 2.66787 10.3323C2.18037 9.84477 1.79443 9.27151 1.51006 8.61248C1.22568 7.95345 1.0835 7.24928 1.0835 6.49998C1.0835 5.75067 1.22568 5.04651 1.51006 4.38748C1.79443 3.72845 2.18037 3.15519 2.66787 2.66769C3.15537 2.18019 3.72863 1.79425 4.38766 1.50988C5.04669 1.2255 5.75086 1.08331 6.50016 1.08331C7.24947 1.08331 7.95363 1.2255 8.61266 1.50988C9.27169 1.79425 9.84495 2.18019 10.3325 2.66769C10.82 3.15519 11.2059 3.72845 11.4903 4.38748C11.7746 5.04651 11.9168 5.75067 11.9168 6.49998C11.9168 7.24928 11.7746 7.95345 11.4903 8.61248C11.2059 9.27151 10.82 9.84477 10.3325 10.3323C9.84495 10.8198 9.27169 11.2057 8.61266 11.4901C7.95363 11.7745 7.24947 11.9166 6.50016 11.9166ZM6.50016 10.8333C7.70988 10.8333 8.73454 10.4135 9.57412 9.57394C10.4137 8.73435 10.8335 7.7097 10.8335 6.49998C10.8335 5.29026 10.4137 4.2656 9.57412 3.42602C8.73454 2.58644 7.70988 2.16665 6.50016 2.16665C5.29044 2.16665 4.26579 2.58644 3.4262 3.42602C2.58662 4.2656 2.16683 5.29026 2.16683 6.49998C2.16683 7.7097 2.58662 8.73435 3.4262 9.57394C4.26579 10.4135 5.29044 10.8333 6.50016 10.8333Z" fill="#323232"/>
</svg>
