<svg width="148" height="20" viewBox="0 0 148 20" fill="none" xmlns="http://www.w3.org/2000/svg">
<path d="M147.942 4.41815C147.974 4.41815 147.99 4.46539 147.99 4.56023C147.99 4.65524 147.974 4.70303 147.942 4.70303C147.467 4.7031 147.031 4.89287 146.636 5.27279C146.256 5.65282 145.955 6.17566 145.733 6.84071L142.384 15.5103L142.237 15.8967C141.884 16.7852 141.458 17.5828 140.959 18.2895C140.389 19.0971 139.795 19.6596 139.177 19.9763C139.082 20.0396 138.916 19.9762 138.679 19.7864C138.457 19.6122 138.275 19.3901 138.132 19.1209C137.974 18.7568 137.895 18.4243 137.895 18.1235C137.895 17.8543 137.958 17.7036 138.085 17.6719C138.972 17.5452 139.731 17.3157 140.365 16.9832C140.988 16.6642 141.478 16.1619 141.838 15.4784L137.467 6.38911C137.151 5.72414 136.873 5.28062 136.636 5.05895C136.398 4.82149 136.073 4.70303 135.662 4.70303C135.614 4.70288 135.591 4.65509 135.591 4.56023C135.591 4.46554 135.614 4.4183 135.662 4.41815L136.707 4.44207C137.309 4.47374 137.887 4.48919 138.441 4.48919C138.837 4.48919 139.336 4.47374 139.938 4.44207L140.982 4.41815C141.03 4.41815 141.054 4.46539 141.054 4.56023C141.054 4.65524 141.03 4.70303 140.982 4.70303C140.159 4.70308 139.747 4.94058 139.747 5.41559C139.747 5.62145 139.818 5.86703 139.961 6.15207L143.002 12.3215L145.092 6.69791C145.218 6.34964 145.282 6.04873 145.282 5.79543C145.281 5.06719 144.791 4.70308 143.809 4.70303C143.762 4.70303 143.738 4.65524 143.738 4.56023C143.738 4.46539 143.762 4.41815 143.809 4.41815L144.641 4.44207C145.147 4.47373 145.646 4.48919 146.137 4.48919C146.406 4.48919 146.715 4.47374 147.063 4.44207L147.942 4.41815Z" fill="#0F232E"/>
<path fill-rule="evenodd" clip-rule="evenodd" d="M35.1946 4.20431C36.3661 4.20437 37.2606 4.51326 37.8781 5.13071C38.4956 5.74824 38.8044 6.55574 38.8045 7.55327C38.8045 7.75906 38.7809 7.90176 38.7334 7.98095C38.7018 8.06012 38.6304 8.09983 38.5196 8.09983H37.3554L31.7796 8.11867C31.7444 8.44083 31.726 8.78306 31.726 9.14511C31.726 10.9027 32.1143 12.3043 32.8902 13.3494C33.6661 14.3945 34.7588 14.9166 36.1681 14.9166C36.5639 14.9166 36.9677 14.8614 37.3793 14.7506C37.7911 14.6398 38.1558 14.4736 38.4725 14.2519H38.4957C38.5432 14.2519 38.5829 14.2835 38.6145 14.3469C38.6621 14.3944 38.6701 14.4422 38.6385 14.4897C37.5301 15.3763 36.3107 15.8198 34.9807 15.8198C33.7456 15.8198 32.6919 15.5581 31.821 15.0355C30.9661 14.4972 30.3173 13.8005 29.8739 12.9457C29.4306 12.0906 29.2085 11.164 29.2085 10.1665C29.2085 9.07384 29.4776 8.07603 30.016 7.17343C30.5544 6.25498 31.2831 5.5344 32.2015 5.01183C33.1199 4.47349 34.1178 4.20431 35.1946 4.20431ZM34.3863 4.77407C33.563 4.77417 32.9136 5.17049 32.4386 5.96215C32.1578 6.43008 31.9611 6.99228 31.8463 7.64823L36.2529 7.57211C36.2518 6.7501 36.1221 6.1025 35.8593 5.62943C35.5584 5.0594 35.0672 4.77407 34.3863 4.77407Z" fill="#0F232E"/>
<path fill-rule="evenodd" clip-rule="evenodd" d="M119.188 4.20431C120.36 4.20437 121.254 4.51326 121.872 5.13071C122.489 5.74824 122.798 6.55574 122.798 7.55327C122.798 7.75906 122.774 7.90176 122.727 7.98095C122.695 8.06012 122.624 8.09983 122.513 8.09983H121.349L115.773 8.11867C115.738 8.44083 115.719 8.78306 115.719 9.14511C115.719 10.9027 116.108 12.3043 116.884 13.3494C117.66 14.3945 118.752 14.9166 120.162 14.9166C120.557 14.9166 120.961 14.8614 121.373 14.7506C121.785 14.6398 122.149 14.4736 122.466 14.2519H122.489C122.537 14.2519 122.576 14.2835 122.608 14.3469C122.656 14.3944 122.664 14.4422 122.632 14.4897C121.524 15.3763 120.304 15.8198 118.974 15.8198C117.739 15.8198 116.685 15.5581 115.814 15.0355C114.96 14.4972 114.311 13.8005 113.867 12.9457C113.424 12.0906 113.202 11.164 113.202 10.1665C113.202 9.07384 113.471 8.07603 114.009 7.17343C114.548 6.25498 115.277 5.5344 116.195 5.01183C117.113 4.47349 118.111 4.20431 119.188 4.20431ZM118.38 4.77407C117.556 4.77417 116.907 5.17049 116.432 5.96215C116.151 6.43008 115.955 6.99228 115.84 7.64823L120.246 7.57211C120.245 6.7501 120.116 6.1025 119.853 5.62943C119.552 5.0594 119.061 4.77407 118.38 4.77407Z" fill="#0F232E"/>
<path fill-rule="evenodd" clip-rule="evenodd" d="M64.2906 4.13327C65.4148 4.13327 66.4046 4.40982 67.2597 4.96399C68.1306 5.50239 68.8034 6.21561 69.2785 7.10239C69.7535 7.97328 69.991 8.89178 69.991 9.85766C69.991 10.9185 69.7145 11.9084 69.1603 12.8268C68.6062 13.7293 67.8537 14.4574 66.9038 15.0116C65.9537 15.55 64.9081 15.8191 63.7679 15.8191C62.6438 15.8191 61.6384 15.558 60.7517 15.0355C59.865 14.4971 59.176 13.7845 58.6851 12.8978C58.1942 11.9952 57.9486 11.0209 57.9486 9.97582C57.9486 8.77247 58.2575 7.72741 58.875 6.84071C59.5084 5.95395 60.3084 5.28113 61.2743 4.82191C62.256 4.36276 63.2614 4.13328 64.2906 4.13327ZM63.4591 4.72695C62.5408 4.72699 61.8443 5.10713 61.3693 5.86719C60.8943 6.62728 60.6567 7.75161 60.6567 9.24006C60.6568 10.3642 60.8149 11.3932 61.1315 12.3273C61.4641 13.2457 61.9075 13.9664 62.4617 14.4889C63.0159 15.0115 63.6336 15.2733 64.3145 15.2733C65.2012 15.2732 65.9138 14.8372 66.4522 13.9663C67.0063 13.0954 67.2836 11.8922 67.2836 10.3564C67.2836 9.31133 67.1247 8.36121 66.8081 7.50615C66.4914 6.65106 66.0406 5.97752 65.4547 5.48663C64.8847 4.9799 64.2192 4.72695 63.4591 4.72695Z" fill="#0F232E"/>
<path d="M84.2045 4.41815C84.2519 4.41821 84.2755 4.46545 84.2756 4.56023C84.2756 4.65518 84.252 4.70297 84.2045 4.70303C83.8403 4.70303 83.5712 4.75082 83.397 4.84583C83.2228 4.925 83.1037 5.07505 83.0404 5.29671C82.977 5.5184 82.9454 5.86693 82.9454 6.34199V13.6104C82.9454 14.0854 82.977 14.4421 83.0404 14.6796C83.1037 14.9011 83.2148 15.0513 83.3731 15.1305C83.5472 15.2096 83.8084 15.2493 84.1567 15.2493C84.2042 15.2493 84.2284 15.2971 84.2284 15.3921C84.2284 15.4869 84.2041 15.5342 84.1567 15.5342L82.6127 15.5103L81.0216 15.5342C80.8317 15.5342 80.7051 15.5106 80.6417 15.4632C80.5942 15.4157 80.57 15.289 80.57 15.0833V13.7843C80.1121 14.3074 79.6298 14.7249 79.1217 15.0355C78.2824 15.558 77.3558 15.819 76.3425 15.8191C75.2499 15.8191 74.3314 15.5263 73.5872 14.9405C72.8429 14.3546 72.4701 13.4517 72.4701 12.2324V6.34199C72.4701 5.86693 72.4466 5.5184 72.3991 5.29671C72.3516 5.07526 72.2646 4.92504 72.1381 4.84583C72.0115 4.75086 71.8135 4.70307 71.5445 4.70303C71.5128 4.70303 71.4966 4.65524 71.4966 4.56023C71.4967 4.46539 71.5128 4.41815 71.5445 4.41815L72.4701 4.44207C72.9767 4.47373 73.3887 4.48918 73.7053 4.48919C74.0854 4.48919 74.5611 4.47374 75.1312 4.44207L76.0808 4.41815C76.1124 4.41815 76.1286 4.46539 76.1286 4.56023C76.1286 4.65524 76.1124 4.70303 76.0808 4.70303C75.7166 4.70305 75.4474 4.75084 75.2733 4.84583C75.0992 4.94086 74.9807 5.10711 74.9173 5.34455C74.854 5.5662 74.8224 5.91432 74.8224 6.38911V11.6626C74.8224 12.8661 75.0437 13.7293 75.4871 14.2519C75.9462 14.7743 76.548 15.0354 77.292 15.0355C78.5383 15.0355 79.6299 14.3596 80.57 13.0102V6.38911C80.5699 5.91433 80.5383 5.5662 80.475 5.34455C80.4275 5.10719 80.317 4.94088 80.143 4.84583C79.9847 4.75082 79.731 4.70303 79.3826 4.70303C79.3351 4.70303 79.3116 4.65524 79.3116 4.56023C79.3116 4.46539 79.3351 4.41815 79.3826 4.41815L80.475 4.44207C81.0767 4.47374 81.5363 4.48919 81.853 4.48919C82.138 4.48919 82.5654 4.47373 83.1353 4.44207L84.2045 4.41815Z" fill="#0F232E"/>
<path fill-rule="evenodd" clip-rule="evenodd" d="M105.355 4.37031C106.685 4.37035 107.833 4.60786 108.799 5.08287C109.765 5.5579 110.501 6.21534 111.008 7.05455C111.514 7.89378 111.768 8.84387 111.768 9.90478C111.768 10.9973 111.507 11.9791 110.985 12.85C110.462 13.7209 109.733 14.4018 108.799 14.8927C107.865 15.3836 106.804 15.6292 105.616 15.6292C105.189 15.6292 104.697 15.6056 104.143 15.5581C103.953 15.5423 103.715 15.5261 103.431 15.5103C103.146 15.4945 102.821 15.4871 102.457 15.4871L100.913 15.5103C100.628 15.5261 100.232 15.5342 99.7257 15.5342C99.694 15.5342 99.6779 15.487 99.6778 15.3921C99.6778 15.2971 99.694 15.2493 99.7257 15.2493C100.201 15.2493 100.541 15.2096 100.747 15.1305C100.968 15.0513 101.111 14.901 101.174 14.6796C101.253 14.442 101.293 14.0854 101.293 13.6104V6.34199C101.293 5.86693 101.253 5.5184 101.174 5.29671C101.111 5.07525 100.968 4.92502 100.747 4.84583C100.541 4.75082 100.216 4.70303 99.7728 4.70303C99.7253 4.70299 99.7018 4.6552 99.7018 4.56023C99.7018 4.46545 99.7254 4.41819 99.7728 4.41815L100.913 4.44207C101.546 4.47374 102.061 4.48919 102.457 4.48919C102.948 4.48919 103.439 4.46563 103.929 4.41815C104.563 4.38648 105.038 4.37031 105.355 4.37031ZM105.141 4.84583C104.603 4.84583 104.215 4.95621 103.977 5.17783C103.755 5.39952 103.644 5.80393 103.644 6.38983V13.3494C103.644 13.9985 103.755 14.4575 103.977 14.7267C104.215 14.9801 104.674 15.1065 105.355 15.1065C106.511 15.1065 107.413 14.6792 108.063 13.8242C108.712 12.9692 109.037 11.7499 109.037 10.1665C109.037 8.63049 108.712 7.36352 108.063 6.36591C107.413 5.35252 106.44 4.8459 105.141 4.84583Z" fill="#0F232E"/>
<path d="M13.3118 0C13.4068 0 13.4546 0.0316531 13.4546 0.0949595C13.4071 0.570018 13.3513 1.33031 13.2879 2.37544C13.2404 3.42041 13.2169 4.25959 13.2169 4.89295C13.2169 4.94046 13.1772 4.96471 13.098 4.96471C13.0189 4.96469 12.9717 4.94043 12.9559 4.89295C12.7184 3.67381 12.2749 2.76332 11.6258 2.1616C10.9765 1.54402 10.1765 1.2352 9.2264 1.2352C8.76717 1.2352 8.45835 1.33814 8.3 1.544C8.15751 1.73404 8.08616 2.10613 8.08616 2.66032V13.6104C8.08616 14.1013 8.13395 14.4579 8.22896 14.6796C8.32397 14.901 8.50589 15.0513 8.7748 15.1305C9.044 15.2096 9.47193 15.2493 10.0578 15.2493C10.1053 15.2494 10.1289 15.2972 10.1289 15.3921C10.1288 15.4869 10.1052 15.5341 10.0578 15.5342C9.48777 15.5342 9.0363 15.5269 8.70376 15.511L6.73208 15.4871L4.80824 15.511C4.47577 15.5268 4.01667 15.5342 3.43097 15.5342C3.3835 15.5342 3.35925 15.487 3.35921 15.3921C3.35921 15.2971 3.38346 15.2493 3.43097 15.2493C4.00078 15.2493 4.42021 15.2096 4.68936 15.1305C4.97433 15.0513 5.16481 14.9012 5.25985 14.6796C5.37069 14.442 5.42584 14.0854 5.42584 13.6104V2.61247C5.42581 2.07427 5.35449 1.71006 5.212 1.52008C5.06947 1.33017 4.77664 1.23522 4.33345 1.2352C2.44905 1.2352 1.09465 2.4624 0.271211 4.91687C0.255346 4.96428 0.208178 4.98789 0.129134 4.98791C0.0499581 4.97207 0.0102539 4.94046 0.0102539 4.89295C0.0735913 4.25956 0.144924 3.44402 0.224094 2.44648C0.303266 1.43306 0.342975 0.672713 0.342975 0.165998C0.343066 0.0870039 0.38277 0.0478422 0.461855 0.0478422C0.55656 0.0479243 0.603823 0.0870861 0.603932 0.165998C0.603932 0.514374 1.0554 0.688637 1.95801 0.688637C3.31978 0.73614 4.91113 0.760399 6.73208 0.760401C7.66629 0.760401 8.65616 0.744224 9.70119 0.712559L11.317 0.688637C11.9185 0.688624 12.354 0.64892 12.6232 0.569757C12.9081 0.490567 13.0899 0.332399 13.169 0.0949595C13.1849 0.0316337 13.2327 1.5477e-05 13.3118 0Z" fill="#0F232E"/>
<path d="M27.7638 4.41815C27.8113 4.41815 27.8348 4.46539 27.8348 4.56023C27.8348 4.65524 27.8113 4.70303 27.7638 4.70303C27.3204 4.70303 26.988 4.75083 26.7664 4.84583C26.5605 4.925 26.4179 5.07508 26.3387 5.29671C26.2595 5.5184 26.2198 5.86693 26.2198 6.34199V13.6104C26.2198 14.0854 26.2595 14.4421 26.3387 14.6796C26.4179 14.9011 26.5606 15.0513 26.7664 15.1305C26.9722 15.2096 27.3047 15.2493 27.7638 15.2493C27.8113 15.2493 27.8348 15.2971 27.8348 15.3921C27.8348 15.4869 27.8112 15.5342 27.7638 15.5342C27.2729 15.5342 26.8927 15.5261 26.6236 15.5103L25.0564 15.4871L23.4645 15.5103C23.1953 15.5261 22.8152 15.5342 22.3243 15.5342C22.2769 15.5341 22.2533 15.4868 22.2532 15.3921C22.2532 15.2972 22.2769 15.2494 22.3243 15.2493C22.7677 15.2493 23.0927 15.2096 23.2985 15.1305C23.5042 15.0513 23.647 14.9011 23.7262 14.6796C23.8054 14.4421 23.8444 14.0854 23.8444 13.6104V10.2375H18.12V13.6104C18.12 14.0854 18.1597 14.434 18.2388 14.6557C18.318 14.8773 18.4607 15.0355 18.6665 15.1305C18.8882 15.2096 19.2207 15.2493 19.664 15.2493C19.6956 15.2493 19.7118 15.2971 19.7118 15.3921C19.7118 15.4869 19.6956 15.5342 19.664 15.5342C19.1731 15.5342 18.7929 15.5261 18.5237 15.5103L16.9326 15.4871L15.3886 15.5103C15.1036 15.5261 14.7078 15.5342 14.2013 15.5342C14.1696 15.5342 14.1535 15.4869 14.1534 15.3921C14.1534 15.2971 14.1696 15.2493 14.2013 15.2493C14.6603 15.2493 14.9929 15.2096 15.1987 15.1305C15.4202 15.0513 15.5704 14.901 15.6496 14.6796C15.7287 14.4421 15.7685 14.0854 15.7685 13.6104V6.34199C15.7685 5.86693 15.7287 5.5184 15.6496 5.29671C15.5704 5.0752 15.4202 4.92501 15.1987 4.84583C14.9928 4.75082 14.6759 4.70303 14.2484 4.70303C14.2009 4.703 14.1773 4.65521 14.1773 4.56023C14.1774 4.46543 14.2009 4.41819 14.2484 4.41815L15.3886 4.44207C16.022 4.47374 16.5367 4.48919 16.9326 4.48919C17.3601 4.48919 17.8905 4.47373 18.5237 4.44207L19.664 4.41815C19.6956 4.41815 19.7118 4.46539 19.7118 4.56023C19.7118 4.65524 19.6956 4.70303 19.664 4.70303C19.0306 4.70305 18.6107 4.81407 18.4048 5.03575C18.215 5.25751 18.12 5.70868 18.12 6.38911V9.6199H23.8444V6.38911C23.8443 5.91445 23.8053 5.5662 23.7262 5.34455C23.6471 5.10714 23.5042 4.94087 23.2985 4.84583C23.0927 4.75082 22.7677 4.70303 22.3243 4.70303C22.2769 4.70294 22.2532 4.65515 22.2532 4.56023C22.2533 4.46548 22.2769 4.41825 22.3243 4.41815L23.4645 4.44207C24.0979 4.47374 24.6288 4.48919 25.0564 4.48919C25.4363 4.48918 25.9588 4.47373 26.6236 4.44207L27.7638 4.41815Z" fill="#0F232E"/>
<path d="M55.8711 0.688637C56.0294 0.688637 56.1088 0.760038 56.1088 0.902478L56.1567 4.06151C56.1567 4.09318 56.1089 4.11744 56.0139 4.13327C55.9347 4.14911 55.8869 4.13294 55.8711 4.08543C55.6177 3.16707 55.1904 2.48609 54.5888 2.04272C53.987 1.59933 53.1951 1.378 52.2133 1.378H51.5008C51.0257 1.378 50.6772 1.48094 50.4555 1.6868C50.234 1.89264 50.1228 2.20909 50.1228 2.63639V7.76711H51.8335C52.7517 7.76709 53.4483 7.60888 53.9233 7.29231C54.4142 6.95977 54.6598 6.50829 54.6598 5.93823C54.6598 5.90656 54.7076 5.89039 54.8026 5.89039C54.8975 5.89041 54.9447 5.90658 54.9447 5.93823L54.9215 8.09983C54.9215 8.60651 54.9288 8.98672 54.9447 9.24006L54.9686 10.4985C54.9686 10.5459 54.9213 10.5702 54.8265 10.5702C54.7315 10.5702 54.6837 10.546 54.6837 10.4985C54.6836 9.8652 54.43 9.36646 53.9233 9.0023C53.4324 8.62235 52.7279 8.43255 51.8096 8.43255H50.1228V13.5154C50.1228 14.0063 50.1867 14.3703 50.3134 14.6078C50.4401 14.8453 50.6776 15.0115 51.026 15.1065C51.3744 15.2015 51.9208 15.2493 52.6649 15.2493C52.6964 15.2496 52.712 15.2974 52.712 15.3921C52.712 15.4867 52.6964 15.5339 52.6649 15.5342C52.0157 15.5342 51.5083 15.5261 51.1441 15.5103L48.7216 15.4871L46.9405 15.5103C46.6238 15.5261 46.1878 15.5342 45.6336 15.5342C45.5863 15.5341 45.5626 15.4868 45.5625 15.3921C45.5625 15.2973 45.5862 15.2495 45.6336 15.2493C46.1876 15.2493 46.5915 15.2096 46.8448 15.1305C47.0982 15.0513 47.2651 14.9012 47.3443 14.6796C47.4393 14.442 47.4864 14.0854 47.4864 13.6104V2.61247C47.4864 2.13768 47.4466 1.78957 47.3675 1.56792C47.2883 1.34622 47.1302 1.19549 46.8927 1.11632C46.6552 1.02133 46.2911 0.973531 45.8003 0.973516C45.7528 0.973516 45.7285 0.926382 45.7285 0.831439C45.7285 0.736428 45.7528 0.688637 45.8003 0.688637H55.8711Z" fill="#0F232E"/>
<path d="M93.5548 4.13327C94.6631 4.13327 95.5817 4.44959 96.31 5.08287C97.0385 5.70045 97.4032 6.76956 97.4032 8.28975V13.6104C97.4032 14.0852 97.4267 14.4413 97.4742 14.6789C97.5217 14.9004 97.6086 15.0512 97.7352 15.1305C97.8618 15.2096 98.0604 15.2493 98.3296 15.2493C98.3611 15.2496 98.3767 15.2974 98.3767 15.3921C98.3766 15.4867 98.361 15.534 98.3296 15.5342C97.9338 15.5342 97.6248 15.5261 97.4032 15.5103L96.168 15.4871L94.7429 15.5103C94.5053 15.5261 94.1884 15.5342 93.7925 15.5342C93.7609 15.5342 93.7447 15.4869 93.7447 15.3921C93.7447 15.2971 93.7609 15.2493 93.7925 15.2493C94.1567 15.2493 94.4259 15.2015 94.6 15.1065C94.7742 15.0115 94.8934 14.8534 94.9567 14.6317C95.02 14.3942 95.0516 14.0376 95.0516 13.5625V8.83631C95.0516 7.34779 94.8296 6.32574 94.3862 5.77151C93.9587 5.20171 93.365 4.91695 92.6052 4.91687C91.8769 4.91687 91.1958 5.13837 90.5625 5.58159C90.1266 5.89448 89.7076 6.35049 89.3033 6.94726V13.5625C89.3033 14.0376 89.3269 14.3942 89.3744 14.6317C89.4377 14.8534 89.5488 15.0115 89.7071 15.1065C89.8813 15.2015 90.1424 15.2493 90.4907 15.2493C90.5224 15.2493 90.5385 15.2971 90.5385 15.3921C90.5385 15.4869 90.5223 15.5342 90.4907 15.5342C90.0316 15.5342 89.6675 15.5261 89.3983 15.5103L88.0203 15.4871L86.7141 15.5103C86.4608 15.5261 86.1046 15.5342 85.6456 15.5342C85.614 15.5342 85.5978 15.4869 85.5977 15.3921C85.5977 15.2971 85.6139 15.2493 85.6456 15.2493C86.0096 15.2493 86.279 15.2096 86.4531 15.1305C86.643 15.0512 86.7696 14.9005 86.8329 14.6789C86.8962 14.4413 86.9279 14.0852 86.9279 13.6104V6.34199C86.9279 5.86693 86.8963 5.5184 86.8329 5.29671C86.7696 5.07506 86.6505 4.925 86.4763 4.84583C86.318 4.75086 86.0649 4.70304 85.7166 4.70303C85.6691 4.70303 85.6456 4.65524 85.6456 4.56023C85.6456 4.46537 85.6692 4.41815 85.7166 4.41815L87.2606 4.44135L88.8517 4.41815C89.0418 4.41815 89.1609 4.44977 89.2084 4.51311C89.2716 4.5607 89.3033 4.67933 89.3033 4.86903V6.17817C89.7561 5.66283 90.2312 5.25043 90.7285 4.94079C91.5677 4.40243 92.5097 4.13331 93.5548 4.13327Z" fill="#0F232E"/>
<path fill-rule="evenodd" clip-rule="evenodd" d="M129.666 4.34711C130.901 4.34713 131.843 4.54494 132.493 4.94079C133.142 5.33667 133.467 5.90653 133.467 6.65079C133.467 7.30003 133.237 7.90151 132.777 8.45574C132.394 8.9354 131.879 9.33166 131.235 9.64527C132.075 11.0599 132.794 12.1681 133.395 12.9689C134.028 13.7923 134.599 14.3783 135.106 14.7267C135.628 15.075 136.158 15.2493 136.697 15.2493C136.744 15.2493 136.769 15.2971 136.769 15.3921C136.769 15.487 136.744 15.5342 136.697 15.5342H132.801C132.564 15.534 132.128 15.0434 131.495 14.062C130.884 13.0988 130.169 11.8103 129.351 10.1976C129.031 10.2398 128.701 10.2614 128.36 10.2614C128.22 10.2614 128.085 10.2583 127.956 10.2534V13.6104C127.956 14.1013 127.988 14.4579 128.051 14.6796C128.13 14.9011 128.265 15.0513 128.455 15.1305C128.661 15.2096 128.985 15.2493 129.428 15.2493C129.46 15.2493 129.476 15.2971 129.476 15.3921C129.476 15.487 129.46 15.5342 129.428 15.5342C128.953 15.5342 128.581 15.5261 128.312 15.5103L126.697 15.4871L125.153 15.5103C124.868 15.5261 124.472 15.5342 123.966 15.5342C123.934 15.5342 123.918 15.487 123.918 15.3921C123.918 15.2971 123.934 15.2493 123.966 15.2493C124.409 15.2493 124.733 15.2096 124.939 15.1305C125.145 15.0513 125.288 14.9011 125.367 14.6796C125.446 14.442 125.486 14.0854 125.486 13.6104V6.34199C125.486 5.86693 125.446 5.5184 125.367 5.29671C125.304 5.07516 125.169 4.92502 124.963 4.84583C124.757 4.75082 124.44 4.70303 124.013 4.70303C123.965 4.70299 123.942 4.6552 123.942 4.56023C123.942 4.46546 123.965 4.41819 124.013 4.41815L125.177 4.44207C125.81 4.47374 126.317 4.48919 126.697 4.48919C126.998 4.48919 127.275 4.4811 127.529 4.46527C127.782 4.44944 128.003 4.43398 128.193 4.41815C128.716 4.37065 129.207 4.34711 129.666 4.34711ZM129.12 4.82191C128.787 4.82192 128.541 4.86163 128.383 4.94079C128.225 5.01998 128.114 5.17027 128.051 5.39167C127.988 5.59753 127.956 5.93061 127.956 6.38983V9.79025C128.135 9.80268 128.324 9.80982 128.526 9.80982C129.429 9.80982 130.054 9.60394 130.403 9.19222C130.751 8.76471 130.925 8.13136 130.925 7.29231C130.925 5.64544 130.323 4.82191 129.12 4.82191Z" fill="#0F232E"/>
</svg>
