<svg width="14" height="14" viewBox="0 0 14 14" fill="none" xmlns="http://www.w3.org/2000/svg">
<g clip-path="url(#clip0_41_238)">
<path d="M4.08317 6.41669L6.4165 1.16669C6.88063 1.16669 7.32575 1.35106 7.65394 1.67925C7.98213 2.00744 8.1665 2.45256 8.1665 2.91669V5.25002H11.4682C11.6373 5.24811 11.8048 5.28298 11.9591 5.35223C12.1134 5.42148 12.2508 5.52345 12.3618 5.65107C12.4727 5.77869 12.5546 5.92892 12.6018 6.09133C12.6489 6.25375 12.6602 6.42448 12.6348 6.59169L11.8298 11.8417C11.7876 12.1199 11.6463 12.3735 11.4319 12.5557C11.2176 12.7379 10.9445 12.8365 10.6632 12.8334H4.08317M4.08317 6.41669V12.8334M4.08317 6.41669H2.33317C2.02375 6.41669 1.72701 6.5396 1.50821 6.7584C1.28942 6.97719 1.1665 7.27393 1.1665 7.58335V11.6667C1.1665 11.9761 1.28942 12.2729 1.50821 12.4916C1.72701 12.7104 2.02375 12.8334 2.33317 12.8334H4.08317" stroke="#323232" stroke-width="1.2" stroke-linecap="round" stroke-linejoin="round"/>
</g>
<defs>
<clipPath id="clip0_41_238">
<rect width="14" height="14" fill="white"/>
</clipPath>
</defs>
</svg>
